<svg xmlns="http://www.w3.org/2000/svg" viewBox="0 0 60 40" preserveAspectRatio="xMidYMid slice"><rect width="60" height="13.4" fill="#ff9933"/><rect y="13.4" width="60" height="13.3" fill="#fff"/><rect y="26.7" width="60" height="13.3" fill="#138808"/><circle cx="30" cy="20" r="5" fill="none" stroke="#000080" stroke-width="1"/><circle cx="30" cy="20" r="1" fill="#000080"/><line x1="30" y1="20" x2="35.00" y2="20.00" stroke="#000080" stroke-width=".5"/><line x1="30" y1="20" x2="34.83" y2="21.29" stroke="#000080" stroke-width=".5"/><line x1="30" y1="20" x2="34.33" y2="22.50" stroke="#000080" stroke-width=".5"/><line x1="30" y1="20" x2="33.54" y2="23.54" stroke="#000080" stroke-width=".5"/><line x1="30" y1="20" x2="32.50" y2="24.33" stroke="#000080" stroke-width=".5"/><line x1="30" y1="20" x2="31.29" y2="24.83" stroke="#000080" stroke-width=".5"/><line x1="30" y1="20" x2="30.00" y2="25.00" stroke="#000080" stroke-width=".5"/><line x1="30" y1="20" x2="28.71" y2="24.83" stroke="#000080" stroke-width=".5"/><line x1="30" y1="20" x2="27.50" y2="24.33" stroke="#000080" stroke-width=".5"/><line x1="30" y1="20" x2="26.46" y2="23.54" stroke="#000080" stroke-width=".5"/><line x1="30" y1="20" x2="25.67" y2="22.50" stroke="#000080" stroke-width=".5"/><line x1="30" y1="20" x2="25.17" y2="21.29" stroke="#000080" stroke-width=".5"/><line x1="30" y1="20" x2="25.00" y2="20.00" stroke="#000080" stroke-width=".5"/><line x1="30" y1="20" x2="25.17" y2="18.71" stroke="#000080" stroke-width=".5"/><line x1="30" y1="20" x2="25.67" y2="17.50" stroke="#000080" stroke-width=".5"/><line x1="30" y1="20" x2="26.46" y2="16.46" stroke="#000080" stroke-width=".5"/><line x1="30" y1="20" x2="27.50" y2="15.67" stroke="#000080" stroke-width=".5"/><line x1="30" y1="20" x2="28.71" y2="15.17" stroke="#000080" stroke-width=".5"/><line x1="30" y1="20" x2="30.00" y2="15.00" stroke="#000080" stroke-width=".5"/><line x1="30" y1="20" x2="31.29" y2="15.17" stroke="#000080" stroke-width=".5"/><line x1="30" y1="20" x2="32.50" y2="15.67" stroke="#000080" stroke-width=".5"/><line x1="30" y1="20" x2="33.54" y2="16.46" stroke="#000080" stroke-width=".5"/><line x1="30" y1="20" x2="34.33" y2="17.50" stroke="#000080" stroke-width=".5"/><line x1="30" y1="20" x2="34.83" y2="18.71" stroke="#000080" stroke-width=".5"/></svg>